<svg xmlns="http://www.w3.org/2000/svg" version="1.1" xmlns:xlink="http://www.w3.org/1999/xlink" xmlns:svgjs="http://svgjs.dev/svgjs" width="2000" height="606" viewBox="0 0 2000 606"><g transform="matrix(1,0,0,1,-1.2121212121212466,0.21238163132790078)"><svg viewBox="0 0 396 120" data-background-color="#efe9dd" preserveAspectRatio="xMidYMid meet" height="606" width="2000" xmlns="http://www.w3.org/2000/svg" xmlns:xlink="http://www.w3.org/1999/xlink"><g id="tight-bounds" transform="matrix(1,0,0,1,0.2400000000000091,-0.04205576857978599)"><svg viewBox="0 0 395.52 120.08411153715956" height="120.08411153715956" width="395.52"><g><svg viewBox="0 0 589.0988397560031 178.85672223824628" height="120.08411153715956" width="395.52"><g><rect width="7.407340432414423" height="178.85672223824628" x="166.78055578323682" y="0" fill="#0083fc" opacity="1" stroke-width="0" stroke="transparent" fill-opacity="1" class="rect-yte-0" data-fill-palette-color="primary" rx="1%" id="yte-0" data-palette-color="#0083fc"></rect></g><g transform="matrix(1,0,0,1,193.57883975600313,0.4449172194981088)"><svg viewBox="0 0 395.52 177.96688779925006" height="177.96688779925006" width="395.52"><g id="textblocktransform"><svg viewBox="0 0 395.52 177.96688779925006" height="177.96688779925006" width="395.52" id="textblock"><g><svg viewBox="0 0 395.52 177.96688779925006" height="177.96688779925006" width="395.52"><g transform="matrix(1,0,0,1,0,0)"><svg width="395.52" viewBox="4.3500000000000005 -35.5 173.35000000000005 75" height="177.96688779925006" data-palette-color="#0083fc"><svg></svg><svg></svg><g class="wordmark-text-0" data-fill-palette-color="primary" id="text-0"><path d="M8 0h-2.5c-0.367 0-0.65-0.11-0.85-0.33-0.2-0.213-0.3-0.487-0.3-0.82v0-32.65c0-0.367 0.1-0.66 0.3-0.88 0.2-0.213 0.483-0.32 0.85-0.32v0h2.5c0.367 0 0.66 0.107 0.88 0.32 0.213 0.22 0.32 0.513 0.32 0.88v0 12.4l13.35-12.8c0.133-0.133 0.36-0.3 0.68-0.5 0.313-0.2 0.737-0.3 1.27-0.3v0h2.7c0.267 0 0.5 0.1 0.7 0.3 0.2 0.2 0.3 0.433 0.3 0.7v0c0 0.267-0.067 0.483-0.2 0.65v0l-15.45 15.1 16.45 16.55c0.167 0.2 0.25 0.433 0.25 0.7v0c0 0.267-0.1 0.5-0.3 0.7-0.2 0.2-0.433 0.3-0.7 0.3v0h-2.8c-0.567 0-1-0.11-1.3-0.33-0.3-0.213-0.517-0.387-0.65-0.52v0l-14.3-14.05v13.75c0 0.333-0.107 0.607-0.32 0.82-0.22 0.22-0.513 0.33-0.88 0.33zM43.45 0.5v0c-2.133 0-3.943-0.477-5.43-1.43-1.48-0.947-2.603-2.27-3.37-3.97-0.767-1.7-1.15-3.65-1.15-5.85v0-14.1c0-0.333 0.11-0.61 0.33-0.83 0.213-0.213 0.487-0.32 0.82-0.32v0h2.5c0.333 0 0.61 0.107 0.83 0.32 0.213 0.22 0.32 0.497 0.32 0.83v0 13.85c0 4.967 2.167 7.45 6.5 7.45v0c2.067 0 3.727-0.66 4.98-1.98 1.247-1.313 1.87-3.137 1.87-5.47v0-13.85c0-0.333 0.11-0.61 0.33-0.83 0.213-0.213 0.487-0.32 0.82-0.32v0h2.5c0.333 0 0.6 0.107 0.8 0.32 0.2 0.22 0.3 0.497 0.3 0.83v0 23.7c0 0.333-0.1 0.607-0.3 0.82-0.2 0.22-0.467 0.33-0.8 0.33v0h-2.35c-0.333 0-0.607-0.11-0.82-0.33-0.22-0.213-0.33-0.487-0.33-0.82v0-2.2c-0.9 1.167-1.99 2.1-3.27 2.8-1.287 0.7-2.98 1.05-5.08 1.05zM73.35 0.5v0c-1.833 0-3.417-0.327-4.75-0.98-1.333-0.647-2.423-1.53-3.27-2.65-0.853-1.113-1.487-2.387-1.9-3.82-0.42-1.433-0.663-2.95-0.73-4.55v0c-0.033-0.533-0.05-1.033-0.05-1.5 0-0.467 0.017-0.967 0.05-1.5v0c0.067-1.567 0.31-3.067 0.73-4.5 0.413-1.433 1.047-2.717 1.9-3.85 0.847-1.133 1.937-2.027 3.27-2.68 1.333-0.647 2.917-0.97 4.75-0.97v0c1.967 0 3.6 0.35 4.9 1.05 1.3 0.7 2.367 1.567 3.2 2.6v0-11.5c0-0.333 0.11-0.61 0.33-0.83 0.213-0.213 0.487-0.32 0.82-0.32v0h2.4c0.333 0 0.61 0.107 0.83 0.32 0.213 0.22 0.32 0.497 0.32 0.83v0 33.2c0 0.333-0.107 0.607-0.32 0.82-0.22 0.22-0.497 0.33-0.83 0.33v0h-2.25c-0.367 0-0.65-0.11-0.85-0.33-0.2-0.213-0.3-0.487-0.3-0.82v0-2.1c-0.833 1.067-1.917 1.957-3.25 2.67-1.333 0.72-3 1.08-5 1.08zM74.4-3.55v0c1.667 0 3-0.383 4-1.15 1-0.767 1.75-1.743 2.25-2.93 0.5-1.18 0.767-2.387 0.8-3.62v0c0.033-0.533 0.05-1.177 0.05-1.93 0-0.747-0.017-1.387-0.05-1.92v0c-0.033-1.167-0.307-2.317-0.82-3.45-0.52-1.133-1.287-2.067-2.3-2.8-1.02-0.733-2.33-1.1-3.93-1.1v0c-1.7 0-3.05 0.373-4.05 1.12-1 0.753-1.717 1.737-2.15 2.95-0.433 1.22-0.683 2.53-0.75 3.93v0c-0.033 0.967-0.033 1.933 0 2.9v0c0.067 1.4 0.317 2.707 0.75 3.92 0.433 1.22 1.15 2.207 2.15 2.96 1 0.747 2.35 1.12 4.05 1.12zM100.85 0.5v0c-1.667 0-3.183-0.333-4.55-1-1.367-0.667-2.467-1.567-3.3-2.7-0.833-1.133-1.25-2.417-1.25-3.85v0c0-2.3 0.933-4.133 2.8-5.5 1.867-1.367 4.3-2.267 7.3-2.7v0l7.45-1.05v-1.45c0-1.6-0.457-2.85-1.37-3.75-0.92-0.9-2.413-1.35-4.48-1.35v0c-1.467 0-2.667 0.3-3.6 0.9-0.933 0.6-1.583 1.367-1.95 2.3v0c-0.2 0.5-0.55 0.75-1.05 0.75v0h-2.25c-0.367 0-0.64-0.11-0.82-0.33-0.187-0.213-0.28-0.47-0.28-0.77v0c0-0.5 0.193-1.117 0.58-1.85 0.38-0.733 0.97-1.45 1.77-2.15 0.8-0.7 1.827-1.293 3.08-1.78 1.247-0.48 2.77-0.72 4.57-0.72v0c2 0 3.683 0.257 5.05 0.77 1.367 0.52 2.443 1.213 3.23 2.08 0.78 0.867 1.347 1.85 1.7 2.95 0.347 1.1 0.52 2.217 0.52 3.35v0 16.2c0 0.333-0.107 0.607-0.32 0.82-0.22 0.22-0.497 0.33-0.83 0.33v0h-2.3c-0.367 0-0.65-0.11-0.85-0.33-0.2-0.213-0.3-0.487-0.3-0.82v0-2.15c-0.433 0.6-1.017 1.19-1.75 1.77-0.733 0.587-1.65 1.07-2.75 1.45-1.1 0.387-2.45 0.58-4.05 0.58zM101.9-3.25v0c1.367 0 2.617-0.293 3.75-0.88 1.133-0.58 2.027-1.487 2.68-2.72 0.647-1.233 0.97-2.783 0.97-4.65v0-1.4l-5.8 0.85c-2.367 0.333-4.15 0.89-5.35 1.67-1.2 0.787-1.8 1.78-1.8 2.98v0c0 0.933 0.277 1.707 0.83 2.32 0.547 0.62 1.247 1.08 2.1 1.38 0.847 0.3 1.72 0.45 2.62 0.45zM134.6 0.5v0c-2.967 0-5.473-0.55-7.52-1.65-2.053-1.1-3.62-2.65-4.7-4.65-1.087-2-1.697-4.35-1.83-7.05v0c-0.033-1.467-0.05-3.027-0.05-4.68 0-1.647 0.017-3.22 0.05-4.72v0c0.133-2.7 0.743-5.043 1.83-7.03 1.08-1.98 2.653-3.513 4.72-4.6 2.067-1.08 4.567-1.62 7.5-1.62v0c2.333 0 4.367 0.333 6.1 1 1.733 0.667 3.157 1.507 4.27 2.52 1.12 1.02 1.953 2.08 2.5 3.18 0.553 1.1 0.847 2.067 0.88 2.9v0c0.033 0.3-0.05 0.54-0.25 0.72-0.2 0.187-0.467 0.28-0.8 0.28v0h-2.95c-0.333 0-0.573-0.067-0.72-0.2-0.153-0.133-0.297-0.367-0.43-0.7v0c-0.3-0.867-0.793-1.717-1.48-2.55-0.68-0.833-1.597-1.527-2.75-2.08-1.147-0.547-2.603-0.82-4.37-0.82v0c-2.667 0-4.807 0.717-6.42 2.15-1.62 1.433-2.497 3.8-2.63 7.1v0c-0.1 2.967-0.1 5.933 0 8.9v0c0.133 3.333 1.017 5.723 2.65 7.17 1.633 1.453 3.767 2.18 6.4 2.18v0c1.767 0 3.34-0.333 4.72-1 1.387-0.667 2.48-1.677 3.28-3.03 0.8-1.347 1.2-3.07 1.2-5.17v0-2.1h-7.5c-0.333 0-0.61-0.11-0.83-0.33-0.213-0.213-0.32-0.503-0.32-0.87v0-1.6c0-0.367 0.107-0.66 0.32-0.88 0.22-0.213 0.497-0.32 0.83-0.32v0h11.3c0.367 0 0.65 0.107 0.85 0.32 0.2 0.22 0.3 0.513 0.3 0.88v0 4.8c0 2.733-0.56 5.117-1.68 7.15-1.113 2.033-2.737 3.607-4.87 4.72-2.133 1.12-4.667 1.68-7.6 1.68zM165.9 0.5v0c-2.533 0-4.65-0.483-6.35-1.45-1.7-0.967-3-2.31-3.9-4.03-0.9-1.713-1.4-3.67-1.5-5.87v0c-0.033-0.567-0.05-1.293-0.05-2.18 0-0.88 0.017-1.587 0.05-2.12v0c0.1-2.233 0.61-4.2 1.53-5.9 0.913-1.7 2.22-3.033 3.92-4 1.7-0.967 3.8-1.45 6.3-1.45v0c2.5 0 4.6 0.483 6.3 1.45 1.7 0.967 3.01 2.3 3.93 4 0.913 1.7 1.42 3.667 1.52 5.9v0c0.033 0.533 0.05 1.24 0.05 2.12 0 0.887-0.017 1.613-0.05 2.18v0c-0.1 2.2-0.6 4.157-1.5 5.87-0.9 1.72-2.2 3.063-3.9 4.03-1.7 0.967-3.817 1.45-6.35 1.45zM165.9-3.35v0c2.067 0 3.717-0.66 4.95-1.98 1.233-1.313 1.9-3.237 2-5.77v0c0.033-0.5 0.05-1.133 0.05-1.9 0-0.767-0.017-1.4-0.05-1.9v0c-0.1-2.533-0.767-4.46-2-5.78-1.233-1.313-2.883-1.97-4.95-1.97v0c-2.067 0-3.723 0.657-4.97 1.97-1.253 1.32-1.913 3.247-1.98 5.78v0c-0.033 0.5-0.05 1.133-0.05 1.9 0 0.767 0.017 1.4 0.05 1.9v0c0.067 2.533 0.727 4.457 1.98 5.77 1.247 1.32 2.903 1.98 4.97 1.98z" fill="#0083fc" fill-rule="nonzero" stroke="none" stroke-width="1" stroke-linecap="butt" stroke-linejoin="miter" stroke-miterlimit="10" stroke-dasharray="" stroke-dashoffset="0" font-family="none" font-weight="none" font-size="none" text-anchor="none" style="mix-blend-mode: normal" data-fill-palette-color="primary" opacity="1"></path><path transform="translate(0,39)" d="M7.9 0h-2.4c-0.367 0-0.65-0.11-0.85-0.33-0.2-0.213-0.3-0.487-0.3-0.82v0-32.65c0-0.367 0.1-0.66 0.3-0.88 0.2-0.213 0.483-0.32 0.85-0.32v0h2.3c0.4 0 0.7 0.09 0.9 0.27 0.2 0.187 0.317 0.33 0.35 0.43v0l16.6 25.5v-25c0-0.367 0.1-0.66 0.3-0.88 0.2-0.213 0.483-0.32 0.85-0.32v0h2.4c0.367 0 0.66 0.107 0.88 0.32 0.213 0.22 0.32 0.513 0.32 0.88v0 32.6c0 0.333-0.107 0.617-0.32 0.85-0.22 0.233-0.497 0.35-0.83 0.35v0h-2.4c-0.367 0-0.64-0.1-0.82-0.3-0.187-0.2-0.313-0.333-0.38-0.4v0l-16.55-25.25v24.8c0 0.333-0.107 0.607-0.32 0.82-0.22 0.22-0.513 0.33-0.88 0.33zM48.85 0.5v0c-3.467 0-6.217-1.06-8.25-3.18-2.033-2.113-3.15-5.003-3.35-8.67v0c-0.033-0.433-0.05-0.993-0.05-1.68 0-0.68 0.017-1.237 0.05-1.67v0c0.133-2.367 0.683-4.443 1.65-6.23 0.967-1.78 2.293-3.153 3.98-4.12 1.68-0.967 3.653-1.45 5.92-1.45v0c2.533 0 4.657 0.533 6.37 1.6 1.72 1.067 3.03 2.583 3.93 4.55 0.9 1.967 1.35 4.267 1.35 6.9v0 0.85c0 0.367-0.107 0.65-0.32 0.85-0.22 0.2-0.497 0.3-0.83 0.3v0h-17.3c0 0.033 0 0.1 0 0.2 0 0.1 0 0.183 0 0.25v0c0.067 1.367 0.367 2.64 0.9 3.82 0.533 1.187 1.31 2.147 2.33 2.88 1.013 0.733 2.203 1.1 3.57 1.1v0c1.2 0 2.2-0.183 3-0.55 0.8-0.367 1.45-0.777 1.95-1.23 0.5-0.447 0.833-0.803 1-1.07v0c0.3-0.4 0.533-0.643 0.7-0.73 0.167-0.08 0.433-0.12 0.8-0.12v0h2.45c0.3 0 0.56 0.09 0.78 0.27 0.213 0.187 0.303 0.447 0.27 0.78v0c-0.033 0.5-0.3 1.107-0.8 1.82-0.5 0.72-1.207 1.43-2.12 2.13-0.92 0.7-2.057 1.273-3.41 1.72-1.347 0.453-2.87 0.68-4.57 0.68zM42-15.05v0.15h13.7v-0.15c0-1.5-0.273-2.833-0.82-4-0.553-1.167-1.347-2.093-2.38-2.78-1.033-0.68-2.267-1.02-3.7-1.02v0c-1.433 0-2.657 0.34-3.67 1.02-1.02 0.687-1.797 1.613-2.33 2.78-0.533 1.167-0.8 2.5-0.8 4zM75.3 0h-1.95c-0.433 0-0.767-0.11-1-0.33-0.233-0.213-0.433-0.52-0.6-0.92v0l-7.1-23.2c-0.067-0.167-0.1-0.333-0.1-0.5v0c0-0.3 0.11-0.55 0.33-0.75 0.213-0.2 0.453-0.3 0.72-0.3v0h2.2c0.367 0 0.65 0.1 0.85 0.3 0.2 0.2 0.333 0.383 0.4 0.55v0l5.55 18.85 5.95-18.65c0.067-0.233 0.207-0.467 0.42-0.7 0.22-0.233 0.547-0.35 0.98-0.35v0h1.7c0.433 0 0.767 0.117 1 0.35 0.233 0.233 0.367 0.467 0.4 0.7v0l5.95 18.65 5.55-18.85c0.033-0.167 0.15-0.35 0.35-0.55 0.2-0.2 0.483-0.3 0.85-0.3v0h2.25c0.267 0 0.5 0.1 0.7 0.3 0.2 0.2 0.3 0.45 0.3 0.75v0c0 0.167-0.033 0.333-0.1 0.5v0l-7.05 23.2c-0.133 0.4-0.317 0.707-0.55 0.92-0.233 0.22-0.6 0.33-1.1 0.33v0h-1.95c-0.433 0-0.793-0.11-1.08-0.33-0.28-0.213-0.47-0.52-0.57-0.92v0l-5.8-17.9-5.8 17.9c-0.133 0.4-0.333 0.707-0.6 0.92-0.267 0.22-0.633 0.33-1.1 0.33zM115.55 0.5v0c-1.867 0-3.467-0.233-4.8-0.7-1.333-0.467-2.417-1.033-3.25-1.7-0.833-0.667-1.457-1.333-1.87-2-0.42-0.667-0.647-1.2-0.68-1.6v0c-0.033-0.367 0.083-0.65 0.35-0.85 0.267-0.2 0.533-0.3 0.8-0.3v0h2.25c0.167 0 0.307 0.023 0.42 0.07 0.12 0.053 0.28 0.197 0.48 0.43v0c0.433 0.467 0.917 0.933 1.45 1.4 0.533 0.467 1.19 0.85 1.97 1.15 0.787 0.3 1.763 0.45 2.93 0.45v0c1.7 0 3.1-0.327 4.2-0.98 1.1-0.647 1.65-1.603 1.65-2.87v0c0-0.833-0.227-1.5-0.68-2-0.447-0.5-1.243-0.95-2.39-1.35-1.153-0.4-2.73-0.817-4.73-1.25v0c-2-0.467-3.583-1.043-4.75-1.73-1.167-0.68-2-1.497-2.5-2.45-0.5-0.947-0.75-2.02-0.75-3.22v0c0-1.233 0.367-2.427 1.1-3.58 0.733-1.147 1.807-2.087 3.22-2.82 1.42-0.733 3.197-1.1 5.33-1.1v0c1.733 0 3.217 0.217 4.45 0.65 1.233 0.433 2.25 0.973 3.05 1.62 0.8 0.653 1.4 1.297 1.8 1.93 0.4 0.633 0.617 1.167 0.65 1.6v0c0.033 0.333-0.067 0.607-0.3 0.82-0.233 0.22-0.5 0.33-0.8 0.33v0h-2.1c-0.233 0-0.427-0.05-0.58-0.15-0.147-0.1-0.287-0.217-0.42-0.35v0c-0.333-0.433-0.723-0.867-1.17-1.3-0.453-0.433-1.037-0.793-1.75-1.08-0.72-0.28-1.663-0.42-2.83-0.42v0c-1.667 0-2.917 0.35-3.75 1.05-0.833 0.7-1.25 1.583-1.25 2.65v0c0 0.633 0.183 1.2 0.55 1.7 0.367 0.5 1.067 0.95 2.1 1.35 1.033 0.4 2.567 0.833 4.6 1.3v0c2.2 0.433 3.933 1.017 5.2 1.75 1.267 0.733 2.167 1.583 2.7 2.55 0.533 0.967 0.8 2.083 0.8 3.35v0c0 1.4-0.4 2.683-1.2 3.85-0.8 1.167-2 2.09-3.6 2.77-1.6 0.687-3.567 1.03-5.9 1.03z" fill="#0083fc" fill-rule="nonzero" stroke="none" stroke-width="1" stroke-linecap="butt" stroke-linejoin="miter" stroke-miterlimit="10" stroke-dasharray="" stroke-dashoffset="0" font-family="none" font-weight="none" font-size="none" text-anchor="none" style="mix-blend-mode: normal" data-fill-palette-color="primary" opacity="1"></path></g></svg></g></svg></g></svg></g></svg></g><g transform="matrix(1,0,0,1,0,0.4449172194981088)"><svg viewBox="0 0 147.38961224288494 177.96688779925006" height="177.96688779925006" width="147.38961224288494"><g><svg xmlns="http://www.w3.org/2000/svg" xmlns:xlink="http://www.w3.org/1999/xlink" version="1.1" x="0" y="0" viewBox="19.263 15.172 42.5 51.31700000000001" enable-background="new 0 0 80 80" xml:space="preserve" height="177.96688779925006" width="147.38961224288494" class="icon-icon-0" data-fill-palette-color="accent" id="icon-0"><g fill="#0083fc" data-fill-palette-color="accent"><path d="M40.512 30.654C42.441 30.654 44.009 29.085 44.009 27.156S42.441 23.658 40.512 23.658 37.016 25.227 37.016 27.156 38.584 30.654 40.512 30.654M40.512 25.658C41.337 25.658 42.009 26.33 42.009 27.156S41.337 28.654 40.512 28.654A1.499 1.499 0 0 1 40.512 25.658" fill="#0083fc" data-fill-palette-color="accent"></path><path d="M53.572 19.422V17.172A2 2 0 0 0 49.572 17.172V18.988H31.885V17.172A2 2 0 0 0 27.885 17.172V19.311C22.947 20.499 19.263 24.942 19.263 30.239V55.239C19.263 61.442 24.31 66.489 30.513 66.489H50.513C56.716 66.489 61.763 61.442 61.763 55.239V30.239C61.763 25.097 58.291 20.76 53.572 19.422M27.885 21.893V23.172A2 2 0 0 0 31.885 23.172V21.488H49.573V23.172A2 2 0 0 0 53.573 23.172V22.051C56.891 23.295 59.263 26.49 59.263 30.239V32.489H21.763V30.239C21.763 26.328 24.34 23.012 27.885 21.893M50.513 63.988H30.513C25.688 63.988 21.763 60.063 21.763 55.238V36.488H59.263V55.238C59.263 60.063 55.338 63.988 50.513 63.988" fill="#0083fc" data-fill-palette-color="accent"></path><path d="M29.274 46.604L30.844 47.251A1 1 0 0 0 32.15 46.707 1 1 0 0 0 31.606 45.401L30.036 44.754A1.005 1.005 0 0 0 28.73 45.298 1 1 0 0 0 29.274 46.604" fill="#0083fc" data-fill-palette-color="accent"></path><path d="M36.063 40.911A1 1 0 0 0 37.372 41.446 1 1 0 0 0 37.907 40.137L37.25 38.57A1 1 0 0 0 35.941 38.035 1 1 0 0 0 35.406 39.344z" fill="#0083fc" data-fill-palette-color="accent"></path><path d="M44.787 41.4A1 1 0 0 0 46.089 40.848L46.727 39.273A1 1 0 0 0 44.873 38.523L44.235 40.098A1 1 0 0 0 44.787 41.4" fill="#0083fc" data-fill-palette-color="accent"></path><path d="M50.993 47.203A1 1 0 0 0 51.385 47.123L52.949 46.457A1 1 0 1 0 52.165 44.617L50.601 45.283A1 1 0 0 0 50.993 47.203" fill="#0083fc" data-fill-palette-color="accent"></path><path d="M53.038 54.081L51.459 53.448A1.001 1.001 0 0 0 50.715 55.306L52.294 55.939A1 1 0 0 0 53.595 55.382 1 1 0 0 0 53.038 54.081" fill="#0083fc" data-fill-palette-color="accent"></path><path d="M46.307 59.842A0.999 0.999 0 1 0 44.472 60.635L45.147 62.197A1 1 0 1 0 46.982 61.405z" fill="#0083fc" data-fill-palette-color="accent"></path><path d="M37.582 59.446A1.004 1.004 0 0 0 36.284 60.009L35.66 61.591A1.002 1.002 0 0 0 36.59 62.958C36.988 62.958 37.365 62.718 37.521 62.325L38.145 60.743A1 1 0 0 0 37.582 59.446" fill="#0083fc" data-fill-palette-color="accent"></path><path d="M30.923 53.792L29.364 54.474A1 1 0 0 0 30.164 56.306L31.723 55.624A1 1 0 0 0 30.923 53.792" fill="#0083fc" data-fill-palette-color="accent"></path><path d="M45.916 56.39A3 3 0 0 0 46.058 55.48L46.075 55.479 45.829 45.676 45.821 45.677A3.064 3.064 0 0 0 43.734 42.618C42.4 42.176 40.984 42.714 40.234 43.826L40.23 43.823 34.184 51.543 34.197 51.553C34.021 51.799 33.867 52.067 33.766 52.368A3.07 3.07 0 0 0 35.68 56.229L35.679 56.233 42.038 58.338H42.039A3.07 3.07 0 0 0 45.916 56.39M42.171 45.399L42.189 45.377 42.197 45.365 42.196 45.363A0.6 0.6 0 0 1 42.948 44.991 0.6 0.6 0 0 1 43.33 45.74V45.742L43.329 45.751C43.326 45.758 43.32 45.764 43.318 45.771L43.395 48.523 43.399 48.521 43.488 52.052 38.305 50.336zM43.563 55.441C43.56 55.496 43.56 55.55 43.542 55.604A0.57 0.57 0 0 1 42.824 55.965L42.823 55.964 39.965 55.019 39.359 54.818V54.817L36.505 53.873 36.499 53.872 36.495 53.869 36.485 53.866 36.483 53.862A0.567 0.567 0 0 1 36.138 53.154 0.5 0.5 0 0 1 36.267 52.944L36.265 52.938 36.665 52.426 43.549 54.704 43.566 55.369 43.567 55.396 43.568 55.436z" fill="#0083fc" data-fill-palette-color="accent"></path></g></svg></g></svg></g></svg></g><defs></defs></svg><rect width="395.52" height="120.08411153715956" fill="none" stroke="none" visibility="hidden"></rect></g></svg></g></svg>