<svg xmlns="http://www.w3.org/2000/svg" version="1.1" xmlns:xlink="http://www.w3.org/1999/xlink" xmlns:svgjs="http://svgjs.dev/svgjs" width="128" height="128" viewBox="0 0 128 128"><g transform="matrix(0.8046875,0,0,0.8046875,11.905167573611081,2.108605102539066)"><svg viewBox="0 0 80 96" data-background-color="#efe9dd" preserveAspectRatio="xMidYMid meet" height="153" width="128" xmlns="http://www.w3.org/2000/svg" xmlns:xlink="http://www.w3.org/1999/xlink"><g id="tight-bounds" transform="matrix(1,0,0,1,0.46200576806906213,0.25950000000000273)"><svg viewBox="0 0 79.07598846386186 95.481" height="95.481" width="79.07598846386186"><g><svg viewBox="0 0 79.07598846386186 95.481" height="95.481" width="79.07598846386186"><g><svg viewBox="0 0 79.07598846386186 95.481" height="95.481" width="79.07598846386186"><g id="textblocktransform"><svg viewBox="0 0 79.07598846386186 95.481" height="95.481" width="79.07598846386186" id="textblock"><g><svg viewBox="0 0 79.07598846386186 95.481" height="95.481" width="79.07598846386186"><g><svg viewBox="0 0 79.07598846386186 95.481" height="95.481" width="79.07598846386186"><g><svg xmlns="http://www.w3.org/2000/svg" xmlns:xlink="http://www.w3.org/1999/xlink" version="1.1" x="0" y="0" viewBox="19.263 15.172 42.5 51.31700000000001" enable-background="new 0 0 80 80" xml:space="preserve" height="95.481" width="79.07598846386186" class="icon-icon-0" data-fill-palette-color="accent" id="icon-0"><g fill="#0083fc" data-fill-palette-color="accent"><path d="M40.512 30.654C42.441 30.654 44.009 29.085 44.009 27.156S42.441 23.658 40.512 23.658 37.016 25.227 37.016 27.156 38.584 30.654 40.512 30.654M40.512 25.658C41.337 25.658 42.009 26.33 42.009 27.156S41.337 28.654 40.512 28.654A1.499 1.499 0 0 1 40.512 25.658" fill="#0083fc" data-fill-palette-color="accent"></path><path d="M53.572 19.422V17.172A2 2 0 0 0 49.572 17.172V18.988H31.885V17.172A2 2 0 0 0 27.885 17.172V19.311C22.947 20.499 19.263 24.942 19.263 30.239V55.239C19.263 61.442 24.31 66.489 30.513 66.489H50.513C56.716 66.489 61.763 61.442 61.763 55.239V30.239C61.763 25.097 58.291 20.76 53.572 19.422M27.885 21.893V23.172A2 2 0 0 0 31.885 23.172V21.488H49.573V23.172A2 2 0 0 0 53.573 23.172V22.051C56.891 23.295 59.263 26.49 59.263 30.239V32.489H21.763V30.239C21.763 26.328 24.34 23.012 27.885 21.893M50.513 63.988H30.513C25.688 63.988 21.763 60.063 21.763 55.238V36.488H59.263V55.238C59.263 60.063 55.338 63.988 50.513 63.988" fill="#0083fc" data-fill-palette-color="accent"></path><path d="M29.274 46.604L30.844 47.251A1 1 0 0 0 32.15 46.707 1 1 0 0 0 31.606 45.401L30.036 44.754A1.005 1.005 0 0 0 28.73 45.298 1 1 0 0 0 29.274 46.604" fill="#0083fc" data-fill-palette-color="accent"></path><path d="M36.063 40.911A1 1 0 0 0 37.372 41.446 1 1 0 0 0 37.907 40.137L37.25 38.57A1 1 0 0 0 35.941 38.035 1 1 0 0 0 35.406 39.344z" fill="#0083fc" data-fill-palette-color="accent"></path><path d="M44.787 41.4A1 1 0 0 0 46.089 40.848L46.727 39.273A1 1 0 0 0 44.873 38.523L44.235 40.098A1 1 0 0 0 44.787 41.4" fill="#0083fc" data-fill-palette-color="accent"></path><path d="M50.993 47.203A1 1 0 0 0 51.385 47.123L52.949 46.457A1 1 0 1 0 52.165 44.617L50.601 45.283A1 1 0 0 0 50.993 47.203" fill="#0083fc" data-fill-palette-color="accent"></path><path d="M53.038 54.081L51.459 53.448A1.001 1.001 0 0 0 50.715 55.306L52.294 55.939A1 1 0 0 0 53.595 55.382 1 1 0 0 0 53.038 54.081" fill="#0083fc" data-fill-palette-color="accent"></path><path d="M46.307 59.842A0.999 0.999 0 1 0 44.472 60.635L45.147 62.197A1 1 0 1 0 46.982 61.405z" fill="#0083fc" data-fill-palette-color="accent"></path><path d="M37.582 59.446A1.004 1.004 0 0 0 36.284 60.009L35.66 61.591A1.002 1.002 0 0 0 36.59 62.958C36.988 62.958 37.365 62.718 37.521 62.325L38.145 60.743A1 1 0 0 0 37.582 59.446" fill="#0083fc" data-fill-palette-color="accent"></path><path d="M30.923 53.792L29.364 54.474A1 1 0 0 0 30.164 56.306L31.723 55.624A1 1 0 0 0 30.923 53.792" fill="#0083fc" data-fill-palette-color="accent"></path><path d="M45.916 56.39A3 3 0 0 0 46.058 55.48L46.075 55.479 45.829 45.676 45.821 45.677A3.064 3.064 0 0 0 43.734 42.618C42.4 42.176 40.984 42.714 40.234 43.826L40.23 43.823 34.184 51.543 34.197 51.553C34.021 51.799 33.867 52.067 33.766 52.368A3.07 3.07 0 0 0 35.68 56.229L35.679 56.233 42.038 58.338H42.039A3.07 3.07 0 0 0 45.916 56.39M42.171 45.399L42.189 45.377 42.197 45.365 42.196 45.363A0.6 0.6 0 0 1 42.948 44.991 0.6 0.6 0 0 1 43.33 45.74V45.742L43.329 45.751C43.326 45.758 43.32 45.764 43.318 45.771L43.395 48.523 43.399 48.521 43.488 52.052 38.305 50.336zM43.563 55.441C43.56 55.496 43.56 55.55 43.542 55.604A0.57 0.57 0 0 1 42.824 55.965L42.823 55.964 39.965 55.019 39.359 54.818V54.817L36.505 53.873 36.499 53.872 36.495 53.869 36.485 53.866 36.483 53.862A0.567 0.567 0 0 1 36.138 53.154 0.5 0.5 0 0 1 36.267 52.944L36.265 52.938 36.665 52.426 43.549 54.704 43.566 55.369 43.567 55.396 43.568 55.436z" fill="#0083fc" data-fill-palette-color="accent"></path></g></svg></g></svg></g></svg></g></svg></g></svg></g></svg></g><defs></defs></svg><rect width="79.07598846386186" height="95.481" fill="none" stroke="none" visibility="hidden"></rect></g></svg></g></svg>